<?xml version="1.0" encoding="UTF-8"?>
<svg width="167px" height="37px" viewBox="0 0 167 37" version="1.1" xmlns="http://www.w3.org/2000/svg" xmlns:xlink="http://www.w3.org/1999/xlink">
    <title>イトアキラ</title>
    <g id="Page-1" stroke="none" stroke-width="1" fill="none" fill-rule="evenodd">
        <g id="Artboard" transform="translate(-200.000000, -76.000000)" fill="#5177FF" fill-rule="nonzero">
            <path d="M220.905906,112.23335 L220.905906,89.1415385 C223.451811,86.8189578 226.131712,83.737072 229.034938,80.297866 L224.702432,77.4839702 C218.53866,85.2110174 210.230968,91.5534491 200.36,96.2879404 L203.977866,100.709777 C207.640397,98.8785112 211.838908,96.1986104 215.948089,93.1167246 L215.948089,112.23335 L220.905906,112.23335 Z M239.754541,112.05469 L239.754541,93.0273945 C243.908387,95.0819851 247.883573,97.7172208 251.590769,100.933102 L254.98531,96.8685856 C250.831464,93.2507196 245.650323,90.0795037 239.754541,87.444268 L239.754541,77.3946402 L234.66273,77.3946402 L234.66273,112.05469 L239.754541,112.05469 Z M280.042382,95.7966253 C283.794243,92.7147395 287.724764,88.5608933 291.476625,83.6924069 L288.171414,79.6725558 L257.575881,79.6725558 L257.575881,84.5857072 L283.883573,84.5857072 C282.141638,87.0422829 279.729727,89.4541935 276.826501,91.6874442 L280.042382,95.7966253 Z M261.372407,112.278015 C270.171414,108.079504 274.637916,101.379752 274.637916,92.5807444 L274.637916,87.622928 L269.724764,87.622928 L269.724764,92.5807444 C269.724764,99.4591563 265.794243,104.595633 258.245856,107.900844 L261.372407,112.278015 Z M311.665211,112.68 L316.757022,112.367345 L315.506402,100.263127 L329.665211,99.4591563 L329.218561,94.9033251 L315.059752,95.5733002 L314.389777,89.2308685 L326.226005,88.5608933 L325.690025,83.960397 L313.898462,84.6750372 L313.049826,76.68 L308.136675,77.0819851 L308.851315,85.0323573 L297.238412,85.7469975 L297.774392,90.3028288 L309.43196,89.5881886 L310.012605,95.9752854 L295.094491,96.6899256 L295.585806,101.379752 L310.459256,100.531117 L311.665211,112.68 Z M361.511365,83.3350868 L361.511365,78.5112655 L340.116824,78.5112655 L340.116824,83.3350868 L361.511365,83.3350868 Z M345.029975,112.099355 C355.928238,108.481489 363.208635,101.960397 366.469181,91.9107692 L363.78928,88.5162283 L335.560993,88.5162283 L335.560993,93.2507196 L360.350074,93.2507196 C357.178859,100.084467 350.747097,104.997618 341.501439,107.900844 L345.029975,112.099355 Z" id="イトアキラ"></path>
        </g>
    </g>
</svg>